<?xml version="1.0" encoding="UTF-8"?>
<svg version="1.1" xmlns="http://www.w3.org/2000/svg" width="640" height="325">
<path d="M0 0 C211.2 0 422.4 0 640 0 C640 107.25 640 214.5 640 325 C428.8 325 217.6 325 0 325 C0 217.75 0 110.5 0 0 Z " fill="#FEFEFE" transform="translate(0,0)"/>
<path d="M0 0 C5.94 0 11.88 0 18 0 C16.36449637 13.64158706 14.54967672 27.238037 12.48583984 40.8215332 C11.15324585 49.70059551 10.03253446 58.5941363 9.0390625 67.51733398 C8.71748552 70.34859914 8.36455359 73.17397269 8 76 C7.88301758 77.01964844 7.76603516 78.03929687 7.64550781 79.08984375 C7.50725586 80.08113281 7.36900391 81.07242188 7.2265625 82.09375 C7.11135254 82.98771484 6.99614258 83.88167969 6.87744141 84.80273438 C6 87 6 87 3.5637207 88.26879883 C-8.38733363 91.67737018 -23.91026671 92.04300636 -35 86 C-41.72552555 81.4913723 -46.14912997 76.66404197 -48.4453125 68.82421875 C-50.13712629 60.21026545 -49.49302913 52.65256566 -45 45 C-38.58364065 36.41595168 -32.47157376 31.55198474 -22 29 C-18.8571733 28.64701123 -15.72172832 28.49761513 -12.5625 28.375 C-9.736875 28.25125 -6.91125 28.1275 -4 28 C-2.68 18.76 -1.36 9.52 0 0 Z " fill="#3CB64D" transform="translate(434,124)"/>
<path d="M0 0 C5.5408482 4.13688086 9.27535492 9.27490468 11 16 C12.2369165 25.93358715 10.80322481 35.45395324 5.08203125 43.796875 C-0.53607207 50.51871189 -7.27444591 55.33643642 -16 57 C-26.65497197 57.88069552 -34.9438754 56.53526971 -43.375 49.75 C-49.72155226 43.80090859 -52.1459633 36.62307776 -52.4375 28.0625 C-52.50499702 19.35538506 -49.95991802 12.41590858 -44.06640625 5.84375 C-32.52277331 -4.7772924 -13.94933308 -8.71511013 0 0 Z " fill="#3CB64C" transform="translate(553,157)"/>
<path d="M0 0 C0.75539063 -0.01998047 1.51078125 -0.03996094 2.2890625 -0.06054688 C9.28763209 -0.05453436 14.40632491 2.20573306 19.6875 6.75 C27.29091015 15.58639558 28.95922021 22.68977429 28.26513672 34.28417969 C27.28695067 42.22856362 22.18962977 49.44509511 16.390625 54.74609375 C8.52322402 60.3124085 -0.47013927 62.71382063 -10 61.4375 C-17.87803628 60.00726127 -24.56685509 56.89272622 -29.53515625 50.4453125 C-34.84689637 42.23766741 -35.87927111 35.19632377 -35 25.4375 C-34.09916593 22.11171802 -32.7850691 19.37346891 -31 16.4375 C-30.649375 15.81359375 -30.29875 15.1896875 -29.9375 14.546875 C-23.48702192 4.24402807 -11.65503152 -0.10939023 0 0 Z " fill="#3CB64D" transform="translate(284,152.5625)"/>
<path d="M0 0 C0.75539063 -0.01998047 1.51078125 -0.03996094 2.2890625 -0.06054688 C9.28763209 -0.05453436 14.40632491 2.20573306 19.6875 6.75 C27.29091015 15.58639558 28.95922021 22.68977429 28.26513672 34.28417969 C27.28695067 42.22856362 22.18962977 49.44509511 16.390625 54.74609375 C8.52322402 60.3124085 -0.47013927 62.71382063 -10 61.4375 C-17.88797096 60.00545765 -24.51268739 56.88315806 -29.53515625 50.48046875 C-34.89784108 42.30354698 -36.22347436 34.41850073 -34.53515625 24.78515625 C-32.15593926 15.64839987 -27.36259737 9.87485296 -19.5390625 4.76171875 C-12.99892226 1.35078407 -7.38065299 -0.06927234 0 0 Z " fill="#3CB64D" transform="translate(352,152.5625)"/>
<path d="M0 0 C0.08333357 4.8333472 -0.04738513 9.23692563 -1 14 C-1.825 13.67 -2.65 13.34 -3.5 13 C-8.53415003 11.56167142 -12.78628177 11.16370645 -17.8125 13.0625 C-22.22270349 16.96868023 -23.30933165 22.33651956 -24 28 C-20.37 28 -16.74 28 -13 28 C-13.33 32.29 -13.66 36.58 -14 41 C-17.96 41 -21.92 41 -26 41 C-26.11537109 41.95922363 -26.23074219 42.91844727 -26.34960938 43.90673828 C-27.48127575 53.19934682 -28.7758765 62.45765971 -30.1739502 71.71359253 C-31.79732493 82.47505972 -33.41000011 93.2275011 -34.45507812 104.06396484 C-34.73122277 106.89299405 -35.09544496 109.28633488 -36 112 C-41.94 112 -47.88 112 -54 112 C-52.43990728 96.71109134 -50.206467 81.56331006 -47.875 66.375 C-47.49836784 63.90369612 -47.12206347 61.43234225 -46.74609375 58.9609375 C-45.83450073 52.9733764 -44.91849683 46.98650576 -44 41 C-47.96 41 -51.92 41 -56 41 C-55.67 36.71 -55.34 32.42 -55 28 C-50.71 28 -46.42 28 -42 28 C-41.95875 26.7625 -41.9175 25.525 -41.875 24.25 C-40.93566505 16.09194033 -37.10612434 8.49904536 -31.0625 2.9375 C-21.88886406 -4.13240739 -10.33227175 -5.76684935 0 0 Z " fill="#3CB64C" transform="translate(262,126)"/>
<path d="M0 0 C5.94 0 11.88 0 18 0 C15.25246743 22.6817582 15.25246743 22.6817582 13.5 33.9375 C12.17099591 42.49236779 11.13172292 51.06860628 10.1315918 59.66748047 C8.97570515 69.48374293 7.51924391 79.23343198 6 89 C0.06 89 -5.88 89 -12 89 C-12 80 -12 80 -11.54443359 76.96289062 C-11.44346375 76.27034683 -11.3424939 75.57780304 -11.23846436 74.86427307 C-11.12625549 74.13562546 -11.01404663 73.40697784 -10.8984375 72.65625 C-10.78139465 71.86504257 -10.66435181 71.07383514 -10.54376221 70.25865173 C-10.15967373 67.67158005 -9.76741027 65.08582131 -9.375 62.5 C-9.10544922 60.69546966 -8.83641406 58.89086223 -8.56787109 57.08618164 C-7.86280436 52.35739353 -7.15077575 47.62967963 -6.43725586 42.90216064 C-5.70914328 38.06952174 -4.98766998 33.23589225 -4.265625 28.40234375 C-2.85021865 18.93391576 -1.42683743 9.46671214 0 0 Z " fill="#3DB64E" transform="translate(484,124)"/>
<path d="M0 0 C2.21173238 0.39495221 4.12191065 1.05224742 6.1875 1.9375 C9.24012301 3.09071314 12.23644538 3.77723084 15.42578125 4.4375 C17.53917617 4.89930405 19.63154141 5.45635123 21.71484375 6.0390625 C26.24092893 7.17335616 30.59784429 7.38257912 35.25 7.375 C36.07540283 7.37628906 36.90080566 7.37757813 37.7512207 7.37890625 C44.76817442 7.25843177 50.55808491 5.88021752 57 3 C53.41557599 12.72440957 45.50589136 18.83316171 36.34375 23.29296875 C24.45944168 28.2507299 10.95768942 28.96938625 -1.15234375 24.32421875 C-9.56655922 20.41143542 -16.55782671 15.61532782 -22 8 C-22 7.67 -22 7.34 -22 7 C-20.98292969 6.85304687 -20.98292969 6.85304687 -19.9453125 6.703125 C-9.20743745 5.18609534 -9.20743745 5.18609534 0 0 Z " fill="#F79623" transform="translate(106,196)"/>
<path d="M0 0 C5.61 0 11.22 0 17 0 C17.15972245 7.31929147 16.5937584 14.20966917 15.50390625 21.44140625 C15.27440529 23.01473976 15.27440529 23.01473976 15.04026794 24.61985779 C14.71832913 26.81616682 14.39293059 29.01197129 14.06420898 31.20727539 C13.55944683 34.58291833 13.06701455 37.96019847 12.57617188 41.33789062 C12.26113545 43.4766685 11.9454055 45.61534436 11.62890625 47.75390625 C11.48095108 48.76731583 11.33299591 49.7807254 11.18055725 50.82484436 C11.04048752 51.75348801 10.90041779 52.68213165 10.75610352 53.63891602 C10.63396988 54.4592482 10.51183624 55.27958038 10.38600159 56.12477112 C10 58 10 58 9 59 C6.13732433 59.07325168 3.299281 59.09238205 0.4375 59.0625 C-0.36880859 59.05798828 -1.17511719 59.05347656 -2.00585938 59.04882812 C-4.00393756 59.03700518 -6.00197783 59.01906914 -8 59 C-7.4738296 46.39114372 -5.43417565 34.06665625 -3.4375 21.625 C-3.10427813 19.52091872 -2.77159175 17.41675255 -2.43945312 15.3125 C-1.63246787 10.20733452 -0.81826049 5.10336989 0 0 Z " fill="#3DB64D" transform="translate(455,154)"/>
<path d="M0 0 C0.33 0.66 0.66 1.32 1 2 C0.39253868 3.74301715 -0.26333753 5.46918017 -0.9375 7.1875 C-4.97695371 19.82662693 -5.02686163 35.37579807 -0.16796875 47.79296875 C0.95061331 50.07513137 0.95061331 50.07513137 2.69921875 52.11328125 C3.12847656 52.73589844 3.55773437 53.35851562 4 54 C3 57 3 57 1.390625 58.16796875 C-5.41158497 61.40770744 -11.55901392 61.41402705 -19 61 C-23.86543889 48.31510574 -25.32550196 35.7146389 -20.328125 22.74609375 C-15.92873131 13.64970032 -9.13083688 4.70376445 0 0 Z " fill="#EF443A" transform="translate(98,135)"/>
<path d="M0 0 C10.53841479 5.77015317 16.45231238 15.7208925 20.3125 26.75 C21.92248971 34.3664898 22.51711357 44.15540313 19.234375 51.38671875 C15.63270236 56.09396811 9.01838266 58.50490439 3.39453125 59.73046875 C-2.04498516 60.34274711 -7.53665996 60.13811815 -13 60 C-11.9790625 59.071875 -11.9790625 59.071875 -10.9375 58.125 C-0.78181222 47.85390668 3.34340559 37.31482565 3.4375 23.0625 C3.3771904 14.99727676 2.71228298 7.65251269 0 0 Z " fill="#3DB64E" transform="translate(149,137)"/>
<path d="M0 0 C3.11395357 1.28619821 4.60562133 2.55122427 6.8125 5.0625 C9.21544098 11.00661716 8.73113384 16.90737794 6.375 22.8125 C4.16039962 27.14942575 2.25986364 29.55452273 -2 32 C-6.87847231 32.87702873 -10.64940493 32.75970972 -15 30.3125 C-18.70771024 26.02546003 -19.51307777 22.04075061 -19.3828125 16.4765625 C-18.4842832 10.66362805 -15.52982618 5.78479721 -11.75 1.375 C-7.78658643 -0.60670679 -4.34632911 -0.64799816 0 0 Z " fill="#FBFDFB" transform="translate(538,167)"/>
<path d="M0 0 C3.61236293 2.152046 5.42650354 4.15214839 7 8 C7.94852908 15.1029387 7.2421947 21.14046856 3 27 C0.3689414 30.00692412 -1.46597229 31.6995965 -5.43359375 32.4765625 C-10.10018402 32.74005497 -12.29016103 32.55048736 -16.0625 29.625 C-19.94617486 24.36324696 -19.45008735 19.38305698 -19 13 C-17.82109849 7.83882488 -14.95217339 4.4454845 -11 1 C-7.53749757 -0.73125121 -3.78591771 -0.47815224 0 0 Z " fill="#FCFEFC" transform="translate(287,167)"/>
<path d="M0 0 C3.02977081 1.74050664 4.4917035 3.17704377 6.3125 6.125 C8.16872068 13.88737738 7.34406655 19.95803364 3.40625 26.92578125 C1.48442097 29.76047906 0.30790772 30.97087315 -3 32 C-6.43958919 32.48893334 -9.57179405 32.61921618 -13 32 C-15.82424288 29.80977082 -17.41508603 28.16982793 -19 25 C-19.54981293 18.0321785 -19.60309206 12.08798313 -16 6 C-10.94084575 0.32387572 -7.46785442 -0.93025176 0 0 Z " fill="#FCFEFC" transform="translate(355,167)"/>
<path d="M0 0 C-1.32 10.23 -2.64 20.46 -4 31 C-17.77777778 31 -17.77777778 31 -22 27 C-25.09215717 22.1255578 -24.59604211 16.55809271 -24 11 C-21.70370541 6.05413474 -18.68676135 3.69239482 -14 1 C-11 0 -11 0 0 0 Z " fill="#FBFDFC" transform="translate(428,168)"/>
<path d="M0 0 C2.69990662 1.79993774 4.5418865 3.083773 6 6 C6.41314256 10.6478538 5.78987316 13.24440152 3 17 C-0.47785711 18.73892856 -4.20533849 18.57964634 -8 18 C-10.7149409 15.88102174 -11.67792702 14.41370088 -12.44140625 11.0625 C-12.63965142 8.8354053 -12.57560903 7.16289455 -12 5 C-8.36438899 0.84501599 -5.54577572 -1.06195705 0 0 Z " fill="#3FB74F" transform="translate(469,128)"/>
</svg>
