<?xml version="1.0" encoding="UTF-8"?>
<svg version="1.1" xmlns="http://www.w3.org/2000/svg" width="158" height="45">
<path d="M0 0 C3.11395357 1.28619821 4.60562133 2.55122427 6.8125 5.0625 C8.56641131 9.40112271 8.67922905 13.3856722 8 18 C6.00342873 21.85544798 4.60292362 23.59805092 1 26 C0.01 26 -0.98 26 -2 26 C-1.01 27.98 -0.02 29.96 1 32 C1.66 31.01 2.32 30.02 3 29 C3.99 29 4.98 29 6 29 C5.2743229 33.8983204 2.24180658 36.82718268 -1.25 40.125 C-9.585887 45.80855932 -18.25633549 45.89492894 -28 45 C-34.89943164 43.14124901 -41.08723785 37.86914322 -45 32 C-45 31.01 -45 30.02 -45 29 C-44.01 29 -43.02 29 -42 29 C-39 32.33333333 -39 32.33333333 -39 35 C-38.443125 35.268125 -37.88625 35.53625 -37.3125 35.8125 C-35 37 -35 37 -32.6875 38.625 C-29.19433445 40.41220098 -26.88181046 40.41590826 -23 40 C-19.4613006 38.34860695 -18.18929847 37.28394771 -16 34 C-15.67 32.845 -15.34 31.69 -15 30.5 C-14 27 -14 27 -12 24 C-12.99 23.67 -13.98 23.34 -15 23 C-17.81459127 18.1749864 -18.44284442 14.59931708 -17.578125 9.08203125 C-16.51977752 5.27055014 -14.50140295 2.89579504 -11.140625 0.890625 C-7.48175117 -0.63168017 -3.8921762 -0.44561588 0 0 Z M-10 6 C-12.60073089 9.03418604 -13.0080987 10.53837419 -12.9375 14.5625 C-11.90767139 18.33853825 -11.23062308 19.81714657 -8 22 C-5.04308291 22.75015195 -5.04308291 22.75015195 -2 22 C1.02033737 20.06307631 1.02033737 20.06307631 3 17 C3.68010386 12.76824264 3.48450361 10.79597022 1.25 7.125 C-2.66829919 3.4243841 -5.29359838 3.34510678 -10 6 Z M-10 28 C-12.03435531 31.72965139 -13 33.66905042 -13 38 C-14.98 38.99 -14.98 38.99 -17 40 C-17 40.66 -17 41.32 -17 42 C-18.65 42 -20.3 42 -22 42 C-22 42.33 -22 42.66 -22 43 C-17.85906302 43.20970559 -17.85906302 43.20970559 -14 42 C-14 41.34 -14 40.68 -14 40 C-13.34 40 -12.68 40 -12 40 C-10.68 37.36 -9.36 34.72 -8 32 C-7.34 32 -6.68 32 -6 32 C-6.33 34.31 -6.66 36.62 -7 39 C-5.37506099 37.87890434 -5.37506099 37.87890434 -4 36 C-3.74734595 32.90498792 -3.60064987 30.79870027 -5 28 C-6.65 28 -8.3 28 -10 28 Z " fill="#87B457" transform="translate(66,0)"/>
<path d="M0 0 C3.11395357 1.28619821 4.60562133 2.55122427 6.8125 5.0625 C8.57021759 9.41053825 8.65950013 13.37608898 8 18 C6.22128603 21.76266417 4.66862969 23.51796464 1.3125 25.9375 C-3.07650574 27.34529429 -6.58351858 27.33635231 -11 26 C-14.65519887 23.2002732 -16.97364526 20.51596085 -18 16 C-18.06689944 11.41738828 -17.61504173 7.99679178 -15.1875 4.0625 C-10.54640228 -0.31339213 -6.16710576 -0.70607293 0 0 Z M-10 6 C-12.60073089 9.03418604 -13.0080987 10.53837419 -12.9375 14.5625 C-11.90767139 18.33853825 -11.23062308 19.81714657 -8 22 C-5.04308291 22.75015195 -5.04308291 22.75015195 -2 22 C1.02033737 20.06307631 1.02033737 20.06307631 3 17 C3.68010386 12.76824264 3.48450361 10.79597022 1.25 7.125 C-2.66829919 3.4243841 -5.29359838 3.34510678 -10 6 Z " fill="#82603F" transform="translate(150,0)"/>
<path d="M0 0 C15.65384615 0 15.65384615 0 20.8125 4.625 C22.92501816 8.85003633 23.56052223 13.39257069 22.5625 18.03515625 C20.96071812 22.321743 19.0744744 24.13183963 15 26 C12.28489407 26.2110186 9.8804924 26.28721867 7.1875 26.1875 C4.815625 26.125625 2.44375 26.06375 0 26 C0 17.42 0 8.84 0 0 Z M5 5 C5 10.61 5 16.22 5 22 C11.52029808 22.55709887 11.52029808 22.55709887 14.875 20.4375 C17.66605308 17.23599794 18 15.21894271 18 11 C16.65437601 8.05244268 15.91445456 6.45722728 13 5 C10.36 5 7.72 5 5 5 Z " fill="#846140" transform="translate(79,0)"/>
<path d="M0 0 C3.11395357 1.28619821 4.60562133 2.55122427 6.8125 5.0625 C8.57021759 9.41053825 8.65950013 13.37608898 8 18 C6.22128603 21.76266417 4.66862969 23.51796464 1.3125 25.9375 C-3.07650574 27.34529429 -6.58351858 27.33635231 -11 26 C-14.65519887 23.2002732 -16.97364526 20.51596085 -18 16 C-18.06689944 11.41738828 -17.61504173 7.99679178 -15.1875 4.0625 C-10.54640228 -0.31339213 -6.16710576 -0.70607293 0 0 Z M-10 6 C-12.60073089 9.03418604 -13.0080987 10.53837419 -12.9375 14.5625 C-11.90767139 18.33853825 -11.23062308 19.81714657 -8 22 C-5.04308291 22.75015195 -5.04308291 22.75015195 -2 22 C1.02033737 20.06307631 1.02033737 20.06307631 3 17 C3.68010386 12.76824264 3.48450361 10.79597022 1.25 7.125 C-2.66829919 3.4243841 -5.29359838 3.34510678 -10 6 Z " fill="#82603F" transform="translate(37,0)"/>
<path d="M0 0 C3.11395357 1.28619821 4.60562133 2.55122427 6.8125 5.0625 C8.57156617 9.41387422 8.65255758 13.37277352 8 18 C6.11429005 22.14856188 4.33884225 24.07524591 0.25 25.875 C-0.8225 26.24625 -1.895 26.6175 -3 27 C-3.33 26.67 -3.66 26.34 -4 26 C-5.60388488 25.8101047 -7.20810936 25.62307373 -8.8125 25.4375 C-13.47319639 24.5293987 -13.47319639 24.5293987 -15.5859375 22.40625 C-18.05760146 17.98880803 -18.45872174 13.99996071 -17.61328125 9.046875 C-16.48217109 5.27170478 -14.49575082 2.89242276 -11.140625 0.890625 C-7.48175117 -0.63168017 -3.8921762 -0.44561588 0 0 Z M-10 6 C-12.60073089 9.03418604 -13.0080987 10.53837419 -12.9375 14.5625 C-11.90767139 18.33853825 -11.23062308 19.81714657 -8 22 C-5.04308291 22.75015195 -5.04308291 22.75015195 -2 22 C1.02033737 20.06307631 1.02033737 20.06307631 3 17 C3.68010386 12.76824264 3.48450361 10.79597022 1.25 7.125 C-2.66829919 3.4243841 -5.29359838 3.34510678 -10 6 Z " fill="#836040" transform="translate(66,0)"/>
<path d="M0 0 C5.28 0 10.56 0 16 0 C16 1.32 16 2.64 16 4 C12.37 4 8.74 4 5 4 C5 6.31 5 8.62 5 11 C7.97 11 10.94 11 14 11 C14 12.32 14 13.64 14 15 C11.03 15 8.06 15 5 15 C5 18.63 5 22.26 5 26 C3.35 26 1.7 26 0 26 C0 17.42 0 8.84 0 0 Z " fill="#856140" transform="translate(0,0)"/>
<path d="M0 0 C1.65 0 3.3 0 5 0 C5 7.26 5 14.52 5 22 C7.97 22 10.94 22 14 22 C14 23.32 14 24.64 14 26 C9.38 26 4.76 26 0 26 C0 17.42 0 8.84 0 0 Z " fill="#815F3F" transform="translate(116,0)"/>
<path d="M0 0 C1.65 0 3.3 0 5 0 C5 8.58 5 17.16 5 26 C3.35 26 1.7 26 0 26 C0 17.42 0 8.84 0 0 Z " fill="#7B5C3C" transform="translate(106,0)"/>
<path d="M0 0 C3 0.125 3 0.125 4 1.125 C4.125 4.125 4.125 4.125 4 7.125 C3 8.125 3 8.125 0 8.25 C-3 8.125 -3 8.125 -4 7.125 C-4.125 4.125 -4.125 4.125 -4 1.125 C-3 0.125 -3 0.125 0 0 Z " fill="#008E00" transform="translate(61,8.875)"/>
<path d="M0 0 C3 0.125 3 0.125 4 1.125 C4.125 4.125 4.125 4.125 4 7.125 C3 8.125 3 8.125 0 8.25 C-3 8.125 -3 8.125 -4 7.125 C-4.125 4.125 -4.125 4.125 -4 1.125 C-3 0.125 -3 0.125 0 0 Z " fill="#008E00" transform="translate(32,8.875)"/>
</svg>
